<svg xmlns="http://www.w3.org/2000/svg" viewBox="0 0 128 128">
  <!-- Background -->
  <rect width="128" height="128" rx="16" fill="#F05138"/>
  
  <!-- Swift bird shape (simplified) -->
  <path d="M98.76 75.78c.19-1.72.29-3.48.29-5.27 0-11.02-3.91-21.14-10.41-29.02-.45-.54-.92-1.06-1.4-1.57 6.24 9.09 9.93 20.09 9.93 31.98 0 8.11-1.71 15.81-4.78 22.78 2.62-5.95 5.17-12.55 6.37-18.9z" fill="#fff"/>
  <path d="M25.61 64.09c-.47-1.02-.89-2.08-1.25-3.17 7.93 13.61 21.49 23.66 37.71 27.14-20.47-8.87-35.99-27.49-36.46-23.97zM84.4 31.19c4.01 5.54 6.35 12.34 6.35 19.67 0 18.87-15.29 34.16-34.16 34.16a33.9 33.9 0 01-8.59-1.1c18.55 2.07 29.55-8.14 29.55-8.14-12.86-7.03-23.29-18.77-28.82-32.49 12.26 11.49 26.37 18.57 26.37 18.57-6.68-5.83-11.68-11.48-15.27-16.11-.31-.4-.6-.79-.88-1.17 4.7 4.91 14.51 12.65 14.51 12.65-5.95-6.29-10.55-13.1-13.93-19.06-.22-.38-.43-.76-.64-1.13a68.83 68.83 0 0015.51 15.72c8.8 6.96 17.58 10.28 25.96 9.84-5.87-11.76-15.96-21.41-15.96-31.41z" fill="#fff"/>
  
  <!-- Check mark -->
  <circle cx="96" cy="96" r="24" fill="#34C759"/>
  <path d="M86 96l6 6 14-14" stroke="#fff" stroke-width="4" stroke-linecap="round" stroke-linejoin="round" fill="none"/>
</svg>
